<svg width="350" height="346" viewBox="0 0 350 346" fill="none" xmlns="http://www.w3.org/2000/svg">
<path d="M164.764 143.544C210.24 143.544 251.399 147.03 281.176 152.661C296.068 155.477 308.089 158.824 316.374 162.528C320.518 164.381 323.701 166.311 325.84 168.287C327.979 170.263 329.026 172.241 329.026 174.199C329.026 176.157 327.979 178.133 325.84 180.11C323.701 182.086 320.518 184.016 316.374 185.869C308.089 189.573 296.068 192.92 281.176 195.736C251.399 201.366 210.24 204.852 164.764 204.852C119.287 204.852 78.1279 201.366 48.3506 195.736C33.4582 192.92 21.4378 189.573 13.1523 185.869C9.00791 184.016 5.82512 182.086 3.68652 180.11C1.54742 178.133 0.50015 176.157 0.5 174.199C0.5 172.241 1.54726 170.263 3.68652 168.287C5.82512 166.311 9.00794 164.381 13.1523 162.528C21.4378 158.824 33.4583 155.477 48.3506 152.661C78.1279 147.03 119.287 143.544 164.764 143.544Z" stroke="black"/>
<path d="M164.764 165.484C210.24 165.484 251.399 168.97 281.176 174.6C296.068 177.416 308.089 180.763 316.374 184.467C320.518 186.32 323.701 188.25 325.84 190.226C327.979 192.203 329.026 194.18 329.026 196.138C329.026 198.096 327.979 200.073 325.84 202.049C323.701 204.025 320.518 205.955 316.374 207.808C308.089 211.512 296.068 214.859 281.176 217.675C251.399 223.306 210.24 226.791 164.764 226.792C119.287 226.792 78.1279 223.306 48.3506 217.675C33.4582 214.859 21.4378 211.512 13.1523 207.808C9.00791 205.955 5.82512 204.025 3.68652 202.049C1.54742 200.073 0.50015 198.096 0.5 196.138C0.5 194.18 1.54726 192.203 3.68652 190.226C5.82512 188.25 9.00794 186.32 13.1523 184.467C21.4378 180.763 33.4583 177.416 48.3506 174.6C78.1279 168.97 119.287 165.484 164.764 165.484Z" stroke="black"/>
<path d="M164.764 187.423C210.24 187.423 251.399 190.909 281.176 196.54C296.068 199.355 308.089 202.703 316.374 206.407C320.518 208.259 323.701 210.189 325.84 212.166C327.979 214.142 329.026 216.119 329.026 218.078C329.026 220.036 327.979 222.012 325.84 223.989C323.701 225.965 320.518 227.895 316.374 229.748C308.089 233.451 296.068 236.799 281.176 239.615C251.399 245.245 210.24 248.731 164.764 248.731C119.287 248.731 78.1279 245.245 48.3506 239.615C33.4582 236.799 21.4378 233.451 13.1523 229.748C9.00791 227.895 5.82512 225.965 3.68652 223.989C1.54742 222.012 0.50015 220.036 0.5 218.078C0.5 216.119 1.54726 214.142 3.68652 212.166C5.82512 210.189 9.00794 208.259 13.1523 206.407C21.4378 202.703 33.4583 199.355 48.3506 196.54C78.1279 190.909 119.287 187.423 164.764 187.423Z" stroke="black"/>
<path d="M246.006 58.4932L246.177 59.3223L246.82 58.7725L292.684 19.5977L265.511 70.8828L265.064 71.7256L266.012 71.6133L328.5 64.21L273.165 91.2568L272.246 91.7061L273.165 92.1553L328.502 119.202L266.012 111.8L265.064 111.688L265.511 112.53L292.684 163.814L246.82 124.641L246.177 124.091L246.006 124.92L234.47 180.934L222.935 124.92L222.764 124.091L222.12 124.641L176.256 163.814L203.429 112.53L203.876 111.688L202.929 111.8L140.438 119.202L195.774 92.1553L196.694 91.7061L195.774 91.2568L140.439 64.21L202.929 71.6133L203.876 71.7256L203.429 70.8828L176.256 19.5977L222.12 58.7725L222.764 59.3223L222.935 58.4932L234.47 2.47852L246.006 58.4932Z" stroke="black"/>
<path d="M270.056 155.331L287.399 194.874L332.559 182.425L309.026 219.285L347.996 243.304L301.307 249.725L304.742 292.126L270.056 263.272L235.369 292.126L238.804 249.725L192.116 243.304L231.086 219.285L207.553 182.425L252.712 194.874L270.056 155.331Z" fill="#D9D9D9"/>
<path d="M109.381 268.628L131.746 231.68L154.29 268.628L195.247 288.84L154.29 309.052L131.746 346L109.381 309.052L68.2441 288.84L109.381 268.628Z" fill="#B9FF66"/>
<path d="M148.678 109.319C182.105 109.32 209.11 133.701 209.11 163.668C209.11 193.635 182.105 218.015 148.678 218.016C115.251 218.016 88.2443 193.635 88.2441 163.668C88.2441 133.7 115.251 109.319 148.678 109.319Z" fill="black" stroke="black"/>
<ellipse cx="128.691" cy="151.821" rx="9.7493" ry="17.5515" fill="white"/>
<ellipse cx="168.663" cy="151.821" rx="9.7493" ry="17.5515" fill="white"/>
</svg>